<svg width="319" height="76" viewBox="0 0 319 76" fill="none" xmlns="http://www.w3.org/2000/svg">
<path d="M3.75 27.7812C3.75 26.7188 3.59375 25.7188 3.28125 24.7812C3.03125 23.7812 2.71875 22.8438 2.34375 21.9688C1.96875 21.0312 1.625 20.125 1.3125 19.25C1.0625 18.3125 0.9375 17.3438 0.9375 16.3438C0.9375 15.9688 1.03125 15.4375 1.21875 14.75C1.46875 14 1.75 13.2812 2.0625 12.5938C2.4375 11.8438 2.8125 11.1562 3.1875 10.5312C3.5625 9.90625 3.9375 9.5 4.3125 9.3125C4.5 9.375 4.78125 9.96875 5.15625 11.0938C5.59375 12.2188 6.03125 13.5 6.46875 14.9375C6.90625 16.3125 7.3125 17.6562 7.6875 18.9688C8.125 20.2188 8.4375 20.9688 8.625 21.2188C9 21.8438 9.625 22.7812 10.5 24.0312C11.4375 25.2188 12.4688 26.5625 13.5938 28.0625C14.7188 29.5625 15.9062 31.125 17.1562 32.75C18.4062 34.375 19.5938 35.9375 20.7188 37.4375C21.9062 38.9375 22.9688 40.2812 23.9062 41.4688C24.8438 42.6562 25.5312 43.5312 25.9688 44.0938C26.1562 44.3438 26.7812 44.9688 27.8438 45.9688C28.9062 46.9688 30.1562 48.125 31.5938 49.4375L35.8125 53.1875C37.1875 54.4375 38.2812 55.4062 39.0938 56.0938C39.1562 56.2188 39.4688 56.5312 40.0312 57.0312C40.5938 57.4688 41.1562 57.9688 41.7188 58.5312C42.3438 59.0938 42.9375 59.625 43.5 60.125C44.0625 60.5625 44.4062 60.8125 44.5312 60.875C44.9062 59.375 45 57.625 44.8125 55.625C44.625 53.625 44.5312 51.8125 44.5312 50.1875C44.5312 47.25 44.3438 44.3438 43.9688 41.4688C43.5938 38.5312 43.1875 35.625 42.75 32.75C42.375 29.875 42 27 41.625 24.125C41.25 21.1875 41.0625 18.25 41.0625 15.3125V14.2812C41.0625 13.7812 41.0625 13.2812 41.0625 12.7812C41.125 12.2188 41.1562 11.7188 41.1562 11.2812V10.3438C41.5938 9.59375 42.1562 9.21875 42.8438 9.21875C43.5938 9.21875 44.0938 9.5625 44.3438 10.25C44.6562 10.875 44.8125 11.5938 44.8125 12.4062C44.875 13.1562 44.8125 13.9062 44.625 14.6562C44.5 15.3438 44.4375 15.7188 44.4375 15.7812L49.9688 62.5625C49.9688 63.4375 49.75 64.125 49.3125 64.625C48.875 65.125 48.375 65.5625 47.8125 65.9375C47.25 66.25 46.6562 66.4688 46.0312 66.5938C45.4062 66.7188 44.875 66.8125 44.4375 66.875C44.375 66.9375 44.3125 66.9688 44.25 66.9688H43.875C43.5 66.9688 43.0938 66.8125 42.6562 66.5C42.2812 66.125 41.9062 65.7188 41.5312 65.2812C41.2188 64.8438 40.9375 64.375 40.6875 63.875C40.4375 63.3125 40.25 62.875 40.125 62.5625C39.5 61.875 38.4688 60.8438 37.0312 59.4688C35.6562 58.0312 34.125 56.4375 32.4375 54.6875C30.75 52.9375 28.9375 51.0938 27 49.1562C25.125 47.1562 23.3125 45.25 21.5625 43.4375C19.875 41.625 18.3438 40 16.9688 38.5625C15.6562 37.125 14.6875 36.0625 14.0625 35.375C13.75 35.0625 13.2188 34.4688 12.4688 33.5938C11.7188 32.6562 10.9375 31.6562 10.125 30.5938C9.375 29.5312 8.625 28.5312 7.875 27.5938C7.1875 26.6562 6.71875 25.9688 6.46875 25.5312V28.8125C6.46875 30.375 6.4375 32.0312 6.375 33.7812C6.375 35.4688 6.375 37.0938 6.375 38.6562V41.9375C6.375 47.1875 6.5625 52.375 6.9375 57.5C7.3125 62.625 7.5 67.8125 7.5 73.0625V73.4375C7.375 73.625 7.03125 74 6.46875 74.5625C5.96875 75.125 5.59375 75.4688 5.34375 75.5938L3.75 74.4688V27.7812ZM59.25 53.6562C59.1875 52.6562 59.0625 51.1875 58.875 49.25C58.6875 47.25 58.4688 45 58.2188 42.5C58.0312 40 57.8125 37.375 57.5625 34.625C57.375 31.875 57.1562 29.25 56.9062 26.75C56.7188 24.25 56.5312 22 56.3438 20C56.1562 18 56.0312 16.5312 55.9688 15.5938C55.9688 15.4688 55.9375 15.125 55.875 14.5625C55.875 13.9375 55.875 13.5312 55.875 13.3438H59.25C59.3125 14.1562 59.375 15.4375 59.4375 17.1875C59.5625 18.875 59.6875 20.7812 59.8125 22.9062C60 25.0312 60.1562 27.3125 60.2812 29.75C60.4062 32.125 60.5312 34.375 60.6562 36.5C60.8438 38.625 61 40.5625 61.125 42.3125C61.25 44 61.3438 45.25 61.4062 46.0625C61.5938 47.9375 61.875 50.0938 62.25 52.5312C62.6875 54.9688 63.4062 57.25 64.4062 59.375C65.4062 61.4375 66.6875 63.1875 68.25 64.625C69.8125 66.0625 71.8125 66.7812 74.25 66.7812C76.3125 66.7812 78.0938 66.125 79.5938 64.8125C81.1562 63.5 82.4688 61.8125 83.5312 59.75C84.5938 57.625 85.4375 55.2812 86.0625 52.7188C86.75 50.1562 87.2812 47.6562 87.6562 45.2188C88.0938 42.7188 88.375 40.4375 88.5 38.375C88.6875 36.25 88.7812 34.5938 88.7812 33.4062C88.7812 30.2812 88.5312 27.3438 88.0312 24.5938C87.5938 21.7812 87.375 18.9375 87.375 16.0625C87.375 15.375 87.5938 14.9375 88.0312 14.75C88.5312 14.5 89.0625 14.375 89.625 14.375C89.75 14.375 89.9375 14.4062 90.1875 14.4688C90.4375 14.4688 90.625 14.4688 90.75 14.4688C91.125 15.8438 91.375 17.0938 91.5 18.2188C91.625 19.2812 91.7188 20.3125 91.7812 21.3125C91.9062 22.3125 91.9688 23.3438 91.9688 24.4062V27.875C91.9688 29.6875 91.9062 32.0312 91.7812 34.9062C91.7188 37.7188 91.5 40.7188 91.125 43.9062C90.75 47.0938 90.1562 50.3125 89.3438 53.5625C88.5938 56.75 87.5312 59.6562 86.1562 62.2812C84.8438 64.9062 83.125 67.0312 81 68.6562C78.9375 70.2812 76.4375 71.0938 73.5 71.0938C71.3125 71.0938 69.375 70.5625 67.6875 69.5C66 68.375 64.5625 66.9688 63.375 65.2812C62.25 63.5938 61.3125 61.7188 60.5625 59.6562C59.875 57.5938 59.4375 55.5938 59.25 53.6562ZM98.9062 17.75C98.4688 17.0625 98.1562 16.2812 97.9688 15.4062C97.7812 14.5312 97.6562 13.6562 97.5938 12.7812C97.5938 11.9062 97.5938 11.0625 97.5938 10.25C97.6562 9.375 97.6875 8.59375 97.6875 7.90625V6.59375C97.6875 5.96875 97.6875 5.34375 97.6875 4.71875C97.75 4.03125 97.7812 3.375 97.7812 2.75C97.8438 2.125 97.875 1.6875 97.875 1.4375C97.9375 1.25 98.25 1 98.8125 0.6875C99.375 0.375 99.7812 0.25 100.031 0.3125C101.094 0.5625 101.719 1.09375 101.906 1.90625C102.094 2.71875 102.156 3.59375 102.094 4.53125C102.031 5.40625 102 6.1875 102 6.875C102.062 7.5625 102.469 7.90625 103.219 7.90625H116.25C117.625 7.90625 118.75 8.3125 119.625 9.125C120.5 9.9375 121.188 10.9375 121.688 12.125C122.188 13.3125 122.5 14.5312 122.625 15.7812C122.812 17.0312 122.906 18.125 122.906 19.0625C122.906 21.875 122.469 24.6875 121.594 27.5C120.719 30.25 119.594 32.9688 118.219 35.6562C116.844 38.3438 115.406 40.9375 113.906 43.4375C112.406 45.875 111.031 48.1875 109.781 50.375V52.0625C112.656 52.0625 115.062 51.9375 117 51.6875C119 51.4375 120.875 51.1875 122.625 50.9375C124.438 50.625 126.312 50.3438 128.25 50.0938C130.25 49.8438 132.719 49.7188 135.656 49.7188H137.531C138.406 49.7188 139.344 49.75 140.344 49.8125C141.344 49.8125 142.25 49.8125 143.062 49.8125H144.938C145.5 50.0625 145.844 50.4062 145.969 50.8438C146.094 51.2188 146.156 51.625 146.156 52.0625C146.156 52.8125 146 53.5 145.688 54.125C145.438 54.6875 144.844 55.0938 143.906 55.3438C141.594 54.3438 139.312 53.75 137.062 53.5625C134.812 53.375 132.562 53.375 130.312 53.5625C128.125 53.75 125.969 54.0938 123.844 54.5938C121.781 55.0938 119.688 55.5312 117.562 55.9062C115.438 56.2188 113.281 56.4688 111.094 56.6562C108.969 56.8438 106.812 56.7188 104.625 56.2812C104.625 58.2812 104.75 60.2188 105 62.0938C105.312 63.9688 105.469 65.9062 105.469 67.9062C105.469 68.5312 105.406 69.2188 105.281 69.9688C105.219 70.7188 104.75 71.0938 103.875 71.0938C103.5 71.0938 103.156 71.0312 102.844 70.9062C102.531 70.7188 102.312 70.375 102.188 69.875C102.125 69.6875 102.031 69.2188 101.906 68.4688C101.781 67.7188 101.656 66.9688 101.531 66.2188C101.469 65.4062 101.375 64.6562 101.25 63.9688C101.188 63.2188 101.125 62.6562 101.062 62.2812C101 61.1562 100.906 59.4688 100.781 57.2188C100.656 54.9062 100.5 52.2812 100.312 49.3438C100.188 46.3438 100.031 43.25 99.8438 40.0625C99.7188 36.8125 99.5625 33.7188 99.375 30.7812C99.25 27.8438 99.1562 25.2188 99.0938 22.9062C99.0312 20.5938 98.9688 18.875 98.9062 17.75ZM102.188 16.625C102.25 17.5625 102.312 18.9688 102.375 20.8438C102.5 22.6562 102.625 24.75 102.75 27.125C102.938 29.5 103.094 32 103.219 34.625C103.406 37.1875 103.562 39.6562 103.688 42.0312C103.875 44.3438 104 46.4688 104.062 48.4062C104.188 50.2812 104.281 51.6562 104.344 52.5312C105.844 50.2188 107.469 47.7188 109.219 45.0312C110.969 42.2812 112.625 39.4688 114.188 36.5938C115.75 33.6562 117.031 30.6875 118.031 27.6875C119.094 24.6875 119.625 21.75 119.625 18.875C119.625 17.6875 119.375 16.625 118.875 15.6875C118.438 14.6875 117.812 13.875 117 13.25C116.25 12.5625 115.344 12.0625 114.281 11.75C113.219 11.375 112.125 11.1875 111 11.1875C110.438 11.1875 109.656 11.25 108.656 11.375C107.656 11.5 106.656 11.7188 105.656 12.0312C104.719 12.3438 103.906 12.7812 103.219 13.3438C102.531 13.9062 102.188 14.625 102.188 15.5V16.625ZM148.781 69.875C148.719 68.6875 148.562 66.8125 148.312 64.25C148.062 61.625 147.781 58.6562 147.469 55.3438C147.219 52.0312 146.906 48.5625 146.531 44.9375C146.219 41.3125 145.906 37.875 145.594 34.625C145.344 31.3125 145.094 28.3438 144.844 25.7188C144.656 23.0938 144.531 21.1875 144.469 20V19.3438C144.469 19.0312 144.438 18.6875 144.375 18.3125C144.375 17.875 144.375 17.4688 144.375 17.0938V15.4062C144.375 15.0312 144.375 14.6562 144.375 14.2812C144.438 13.8438 144.469 13.4688 144.469 13.1562V12.4062C144.594 11.7812 144.875 11.4062 145.312 11.2812C145.75 11.1562 146.188 11.0938 146.625 11.0938C146.75 11.0938 146.938 11.125 147.188 11.1875C147.438 11.1875 147.625 11.1875 147.75 11.1875L152.062 63.4062C152.125 63.5938 152.188 63.875 152.25 64.25C152.375 64.625 152.5 65.0625 152.625 65.5625C152.812 66.0625 152.938 66.5 153 66.875C153.062 67.25 153.125 67.5312 153.188 67.7188V68.2812C153.188 68.6562 153.062 69 152.812 69.3125C152.562 69.625 152.25 69.9062 151.875 70.1562C151.5 70.4062 151.125 70.625 150.75 70.8125C150.438 70.9375 150.156 71 149.906 71C149.719 71 149.469 70.875 149.156 70.625C148.906 70.3125 148.781 70.0625 148.781 69.875ZM156.281 44.9375C156.594 42.375 156.875 39.7812 157.125 37.1562C157.438 34.4688 157.812 31.8438 158.25 29.2812C158.688 26.6562 159.281 24.1875 160.031 21.875C160.844 19.5 161.938 17.4688 163.312 15.7812C164.75 14.0312 166.531 12.625 168.656 11.5625C170.781 10.5 173.406 9.96875 176.531 9.96875C179.094 9.96875 181.344 10.5312 183.281 11.6562C185.281 12.7188 186.969 14.1562 188.344 15.9688C189.781 17.7812 190.938 19.875 191.812 22.25C192.688 24.5625 193.375 26.9375 193.875 29.375C194.438 31.8125 194.844 34.25 195.094 36.6875C195.344 39.125 195.469 41.3438 195.469 43.3438C195.469 46.6562 194.938 49.9688 193.875 53.2812C192.812 56.5312 191.281 59.5 189.281 62.1875C187.344 64.8125 184.938 66.9688 182.062 68.6562C179.25 70.2812 176.031 71.0938 172.406 71.0938C169.281 71.0938 166.688 70.25 164.625 68.5625C162.562 66.875 160.906 64.7812 159.656 62.2812C158.406 59.7188 157.531 56.9688 157.031 54.0312C156.531 51.0938 156.281 48.4062 156.281 45.9688V44.9375ZM159.375 45.7812C159.375 47.9688 159.594 50.375 160.031 53C160.469 55.5625 161.219 57.9375 162.281 60.125C163.344 62.3125 164.781 64.1562 166.594 65.6562C168.469 67.0938 170.812 67.8125 173.625 67.8125C176.938 67.8125 179.75 66.9688 182.062 65.2812C184.438 63.5938 186.375 61.5 187.875 59C189.438 56.4375 190.562 53.6562 191.25 50.6562C191.938 47.6562 192.281 44.8438 192.281 42.2188C192.281 39.7812 192.094 36.9062 191.719 33.5938C191.344 30.2188 190.562 27.0312 189.375 24.0312C188.25 21.0312 186.594 18.5 184.406 16.4375C182.281 14.3125 179.531 13.25 176.156 13.25C173.781 13.25 171.719 13.8125 169.969 14.9375C168.219 16.0625 166.719 17.5625 165.469 19.4375C164.219 21.25 163.188 23.3438 162.375 25.7188C161.625 28.0312 161.031 30.4062 160.594 32.8438C160.156 35.2188 159.844 37.5625 159.656 39.875C159.469 42.125 159.375 44.0938 159.375 45.7812ZM255.562 71C254.438 71 253.781 70.5938 253.594 69.7812C253.406 68.9688 253.281 68.125 253.219 67.25C253.219 66.6875 253.219 66.0938 253.219 65.4688C253.281 64.8438 253.406 64.25 253.594 63.6875C253.781 63.125 254.062 62.625 254.438 62.1875C254.812 61.75 255.344 61.4375 256.031 61.25V66.4062C256.406 66.4688 256.781 66.5312 257.156 66.5938C257.406 66.6562 257.688 66.7188 258 66.7812C258.312 66.7812 258.594 66.75 258.844 66.6875C260.719 66.375 262.406 65.6875 263.906 64.625C265.406 63.5 266.656 62.1875 267.656 60.6875C268.719 59.125 269.5 57.4688 270 55.7188C270.562 53.9062 270.844 52.125 270.844 50.375V49.5312C270.844 49.0312 270.812 48.5625 270.75 48.125C270.75 47.6875 270.75 47.2812 270.75 46.9062C270.75 46.4688 270.75 46.1875 270.75 46.0625C270.125 45.0625 269.312 44.4375 268.312 44.1875C267.375 43.875 266.406 43.7188 265.406 43.7188C263.344 43.7188 261.375 44.1562 259.5 45.0312C257.688 45.8438 255.938 46.7812 254.25 47.8438C252.625 48.9062 251.094 49.875 249.656 50.75C248.281 51.5625 246.969 51.9688 245.719 51.9688V47C246.094 46.4375 246.656 45.5938 247.406 44.4688C248.156 43.2812 249 41.9375 249.938 40.4375C250.875 38.9375 251.844 37.375 252.844 35.75C253.844 34.0625 254.812 32.4688 255.75 30.9688C256.688 29.4688 257.5 28.125 258.188 26.9375C258.938 25.6875 259.469 24.7812 259.781 24.2188C259.969 24.0312 260.219 23.625 260.531 23L262.406 19.1562C262.781 18.5312 263.031 18.0625 263.156 17.75C262.969 17.6875 262.594 17.6562 262.031 17.6562C261.531 17.5938 261.188 17.5625 261 17.5625C259.5 17.5625 258.062 17.9375 256.688 18.6875C255.375 19.375 254.062 20.1562 252.75 21.0312C251.5 21.8438 250.25 22.5938 249 23.2812C247.75 23.9688 246.469 24.3125 245.156 24.3125C244.406 24.3125 243.75 24.1562 243.188 23.8438C242.625 23.5312 242.344 22.9688 242.344 22.1562C242.344 21.2812 242.844 20.4688 243.844 19.7188C244.906 18.9062 246.188 18.1875 247.688 17.5625C249.25 16.9375 250.969 16.3438 252.844 15.7812C254.781 15.2188 256.625 14.7812 258.375 14.4688C260.188 14.0938 261.812 13.8125 263.25 13.625C264.688 13.375 265.75 13.25 266.438 13.25C266.875 13.25 267.5 13.2812 268.312 13.3438C269.125 13.3438 269.562 13.3438 269.625 13.3438C269.812 13.4062 270.031 13.5938 270.281 13.9062C270.594 14.1562 270.75 14.3438 270.75 14.4688C270.75 14.5312 270.594 14.8438 270.281 15.4062C270.031 15.9688 269.812 16.375 269.625 16.625C269.375 17.0625 268.844 17.9062 268.031 19.1562C267.281 20.3438 266.375 21.7812 265.312 23.4688C264.312 25.0938 263.219 26.8438 262.031 28.7188C260.844 30.5312 259.719 32.25 258.656 33.875C257.656 35.5 256.75 36.9375 255.938 38.1875C255.125 39.4375 254.625 40.25 254.438 40.625C254.312 40.8125 254.125 41.1875 253.875 41.75C253.625 42.25 253.438 42.5938 253.312 42.7812C254.562 42.2188 255.656 41.8125 256.594 41.5625C257.531 41.25 258.438 41.0312 259.312 40.9062C260.188 40.7188 261.062 40.625 261.938 40.625C262.875 40.5625 263.938 40.5312 265.125 40.5312C268.188 40.5312 270.625 41.1562 272.438 42.4062C274.312 43.6562 275.25 45.9062 275.25 49.1562C275.25 51.7812 274.75 54.4062 273.75 57.0312C272.812 59.6562 271.438 62.0312 269.625 64.1562C267.875 66.2188 265.781 67.875 263.344 69.125C260.969 70.375 258.375 71 255.562 71ZM301.219 69.875C301.219 69.5 301.156 68.8438 301.031 67.9062C300.906 66.9688 300.781 66 300.656 65C300.531 63.9375 300.406 62.9375 300.281 62C300.219 61.0625 300.156 60.4375 300.094 60.125C299.906 59.125 299.781 58.3438 299.719 57.7812C299.719 57.2188 299.688 56.7812 299.625 56.4688C299.562 56.1562 299.375 55.9688 299.062 55.9062C298.812 55.7812 298.344 55.7188 297.656 55.7188C296.156 55.7188 294.688 55.9688 293.25 56.4688C291.875 56.9062 290.5 57.4062 289.125 57.9688C287.75 58.5312 286.375 59.0625 285 59.5625C283.688 60 282.344 60.2188 280.969 60.2188C280.344 60.2188 279.719 59.9375 279.094 59.375C278.531 58.75 278.25 58.0938 278.25 57.4062C278.25 57.3438 278.25 57.25 278.25 57.125C278.312 57 278.344 56.9062 278.344 56.8438C281.906 51.9688 285.156 46.9062 288.094 41.6562C291.031 36.4062 293.562 30.9688 295.688 25.3438C295.438 24.2188 295.438 23.1875 295.688 22.25C296 21.3125 296.781 20.8438 298.031 20.8438C298.656 20.8438 299.125 21 299.438 21.3125C299.75 21.5625 299.969 22.2188 300.094 23.2812L302.25 47C302.375 48.625 302.5 49.5938 302.625 49.9062C302.812 50.2188 303.312 50.375 304.125 50.375C305.125 50.375 306.156 50.2812 307.219 50.0938C308.281 49.8438 309.281 49.5625 310.219 49.25C311.219 48.9375 312.188 48.6875 313.125 48.5C314.125 48.25 315.062 48.125 315.938 48.125C316.75 48.125 317.406 48.5 317.906 49.25C318.469 49.9375 318.75 50.6562 318.75 51.4062C318.75 51.8438 318.656 52.2812 318.469 52.7188C318.344 53.0938 318 53.4062 317.438 53.6562C315.25 53.4688 312.875 53.4375 310.312 53.5625C307.812 53.625 305.469 53.9688 303.281 54.5938V55.3438C303.281 57.2812 303.5 59.1875 303.938 61.0625C304.375 62.9375 304.594 64.875 304.594 66.875C304.594 67.1875 304.594 67.5938 304.594 68.0938C304.594 68.5938 304.562 69.0625 304.5 69.5C304.438 69.9375 304.281 70.3125 304.031 70.625C303.781 70.9375 303.375 71.0938 302.812 71.0938C302.125 71.0938 301.594 70.6875 301.219 69.875ZM285.938 53.8438C286.625 53.8438 287.719 53.7812 289.219 53.6562C290.719 53.4688 292.188 53.2188 293.625 52.9062C295.125 52.5312 296.406 52.1562 297.469 51.7812C298.531 51.3438 299.031 50.875 298.969 50.375L296.812 32.9375L285.938 52.5312V53.8438Z" fill="black"/>
</svg>
